:SAMPLES-PER-SECOND 30
:FRAME-RANGE 1-744
:FULLY-SPECIFIED
:DEGREES
47
root  -52.3583 38.3269 -107.415 178.616 38.1639 171.469
RightUpLeg  -12.8365 0.731391 -10.5114
RightLeg  66.7683 -1.40703 -4.27697
RightFoot  -1.69881 -0.493414 5.70684
RightToes  -5.28216e-011 1.2921e-014 -6.02303e-014
Spine  -4.24827 0.141329 -0.899343
Spine1  9.48564 0.30896 -3.6059
HEad  26.6555 -1.68002 -6.79182
LeftShoulder1  0.444462 1.67389 -21.0897
LeftArm  -8.17559 18.5028 -47.2249
LeftForeArm  30.7204 7.57583 -10.8831
LeftHand  -0.0284312 5.29565 1.91168
RightShoulder  1.47193 1.269 26.1162
RightArm  -24.9294 4.56424 49.5286
RightForeArm  61.6992 -5.62286 3.58548
RightHand  0.113835 -6.2086 -18.0391
LeftUpLeg  -20.2919 -6.35636 -8.19136
LeftLeg  20.7345 9.26148 4.47376
LeftFoot  -3.34008 0.0400578 -0.285029
LeftToes  -9.4837e-011 -7.11147e-011 -1.07582e-011
48
root  -51.7408 38.4652 -108.35 178.658 37.6553 171.995
RightUpLeg  -16.4885 0.379816 -9.60351
RightLeg  66.988 -1.25259 -3.92461
RightFoot  -3.55159 -0.376727 5.17334
RightToes  -5.28216e-011 1.2921e-014 -6.02303e-014
Spine  -3.83908 -0.0945044 -1.28686
Spine1  8.94116 -0.0807507 -3.08842
HEad  27.2991 -1.43506 -6.55616
LeftShoulder1  0.49161 1.49577 -21.0077
LeftArm  -8.06929 16.1265 -48.0058
LeftForeArm  31.0373 7.56482 -10.8408
LeftHand  -0.0291167 5.21993 1.85258
RightShoulder  1.40713 1.02817 26.4109
RightArm  -24.6952 4.12692 49.4128
RightForeArm  60.4576 -5.69296 3.75051
RightHand  0.0687664 -5.92452 -17.8099
LeftUpLeg  -17.925 -5.69895 -8.41569
LeftLeg  20.5333 8.33577 4.27323
LeftFoot  -5.07056 0.0337621 -0.0590843
LeftToes  -9.4837e-011 -7.11147e-011 -1.07582e-011
49
root  -51.1168 38.5199 -109.256 178.724 37.3337 172.48
RightUpLeg  -19.9531 -0.114122 -8.7832
RightLeg  64.9887 -1.44292 -3.99262
RightFoot  -6.2744 -0.267759 5.08238
RightToes  -5.28216e-011 1.2921e-014 -6.02303e-014
Spine  -3.49454 -0.344851 -1.66995
Spine1  8.49934 -0.420452 -2.68463
HEad  27.4551 -1.16745 -6.19298
LeftShoulder1  0.581273 1.14102 -20.6761
LeftArm  -8.26106 13.8516 -49.1657
LeftForeArm  30.6509 7.53901 -10.6431
LeftHand  -0.0267648 5.37903 2.61237
RightShoulder  1.41364 1.06041 26.3178
RightArm  -24.732 3.31873 49.5213
RightForeArm  60.5336 -5.69552 3.78138
RightHand  0.0855117 -6.04704 -17.5378
LeftUpLeg  -15.9586 -4.70761 -8.47701
LeftLeg  20.8935 7.27451 4.00813
LeftFoot  -7.05918 0.0366293 0.155885
LeftToes  -9.4837e-011 -7.11147e-011 -1.07582e-011
50
root  -50.5054 38.5644 -110.163 178.955 37.1145 173.268
RightUpLeg  -22.8112 -0.780336 -7.96302
RightLeg  60.5339 -1.94659 -4.22715
RightFoot  -9.04916 -0.154034 4.62293
RightToes  -5.28216e-011 1.2921e-014 -6.02303e-014
Spine  -3.24049 -0.65301 -1.36778
Spine1  8.18032 -0.69007 -2.5464
HEad  27.1369 -0.864214 -5.83569
LeftShoulder1  0.720868 0.588885 -20.3354
LeftArm  -7.80208 11.3389 -50.2023
LeftForeArm  30.3367 6.85192 -10.7624
LeftHand  -0.0299499 5.1945 2.56331
RightShoulder  1.38146 0.950613 26.3948
RightArm  -24.8321 2.91192 49.5428
RightForeArm  61.532 -5.65496 3.74347
RightHand  0.118617 -6.26479 -17.5999
LeftUpLeg  -13.9546 -3.81572 -8.15041
LeftLeg  21.1978 6.36939 3.70642
LeftFoot  -9.04191 0.0478312 0.324173
LeftToes  -9.4837e-011 -7.11147e-011 -1.07582e-011
51
root  -49.9099 38.6174 -111.059 179.276 36.9917 174.261
RightUpLeg  -24.9728 -1.25903 -6.9746
RightLeg  53.6853 -3.33898 -5.25407
RightFoot  -9.8945 -0.119092 4.10844
RightToes  -5.28216e-011 1.2921e-014 -6.02303e-014
Spine  -2.73388 -0.90823 -0.666449
Spine1  7.62365 -0.920026 -2.13513
HEad  26.726 -0.426001 -5.8975
LeftShoulder1  0.854849 0.105814 -20.5313
LeftArm  -7.3127 8.58464 -50.8874
LeftForeArm  30.8956 5.87654 -10.8633
LeftHand  -0.0361523 4.86292 2.72368
RightShoulder  1.37983 0.97321 26.1766
RightArm  -24.9466 2.35095 49.3361
RightForeArm  62.3816 -5.61949 3.70809
RightHand  0.152595 -6.49265 -17.5786
LeftUpLeg  -11.8074 -3.50296 -7.60677
LeftLeg  21.236 6.08961 3.68404
LeftFoot  -10.8127 0.0636049 0.288165
LeftToes  -9.4837e-011 -7.11147e-011 -1.07582e-011
52
root  -49.3115 38.7011 -111.932 179.793 36.9465 175.246
RightUpLeg  -26.2191 -1.66671 -6.1817
RightLeg  44.2342 -5.03744 -5.52543
RightFoot  -8.64602 -0.16572 4.54374
RightToes  -5.28216e-011 1.2921e-014 -6.02303e-014
Spine  -2.48234 -1.09837 0.244142
Spine1  7.19908 -1.07332 -1.59653
HEad  26.5799 -0.259946 -6.04912
LeftShoulder1  0.957595 -0.255061 -20.7233
LeftArm  -6.79098 5.78926 -51.6523
LeftForeArm  31.5989 4.80745 -10.9575
LeftHand  -0.0396629 4.76508 3.11244
RightShoulder  1.34215 0.896304 25.8508
RightArm  -25.7808 1.5932 49.3705
RightForeArm  63.4187 -5.51603 3.30732
RightHand  0.17244 -6.62795 -17.5413
LeftUpLeg  -9.56818 -3.24344 -6.99507
LeftLeg  20.5487 5.94524 3.62729
LeftFoot  -12.0929 0.0750864 0.379373
LeftToes  -9.4837e-011 -7.11147e-011 -1.07582e-011
53
root  -48.7181 38.8214 -112.779 -179.4 36.7684 176.131
RightUpLeg  -26.4662 -1.78049 -5.77998
RightLeg  32.1641 -5.63663 -4.04397
RightFoot  -6.38962 -0.258902 4.97822
RightToes  -5.28216e-011 1.2921e-014 -6.02303e-014
Spine  -2.72722 -1.32327 1.30267
Spine1  7.14349 -1.27427 -1.07902
HEad  26.6951 -0.12513 -6.20833
LeftShoulder1  1.02372 -0.526457 -20.5331
LeftArm  -6.36225 3.09798 -52.5981
LeftForeArm  32.0733 3.85437 -11.0176
LeftHand  -0.0438583 4.57144 3.10847
RightShoulder  1.29454 0.741442 25.8902
RightArm  -26.6647 1.05431 49.0416
RightForeArm  64.2929 -5.40764 2.84668
RightHand  0.138948 -6.38883 -17.7721
LeftUpLeg  -7.30962 -2.91376 -6.37426
LeftLeg  18.8961 5.60172 3.39168
LeftFoot  -12.8607 0.0827602 0.419731
LeftToes  -9.4837e-011 -7.11147e-011 -1.07582e-011
54
root  -48.092 38.9284 -113.621 -178.593 36.3933 176.946
RightUpLeg  -25.6309 -0.515276 -6.13064
RightLeg  19.3631 -4.66999 -2.02787
RightFoot  -4.09932 -0.494138 7.35606
RightToes  -5.28216e-011 1.2921e-014 -6.02303e-014
Spine  -3.31288 -1.51859 2.42319
Spine1  7.52893 -1.52877 -0.650333
HEad  26.9564 -0.0272349 -6.38103
LeftShoulder1  1.11969 -0.930267 -20.2345
LeftArm  -6.05883 0.87877 -53.5118
LeftForeArm  32.1053 2.70834 -11.031
LeftHand  -0.0431656 4.58865 3.0549
RightShoulder  1.22211 0.48611 26.1301
RightArm  -27.3207 0.531046 48.435
RightForeArm  64.7522 -5.33224 2.49641
RightHand  0.182766 -6.6771 -17.7786
LeftUpLeg  -4.90675 -2.73362 -5.79265
LeftLeg  16.8916 5.20943 3.23984
LeftFoot  -13.4621 0.0852449 0.240758
LeftToes  -9.4837e-011 -7.11147e-011 -1.07582e-011
55
root  -47.3985 38.9638 -114.478 -178.083 35.436 177.551
RightUpLeg  -24.287 -2.54175 -5.74834
RightLeg  8.78234 -0.298526 -0.60212
RightFoot  -2.80763 -0.549521 7.09898
RightToes  -5.28216e-011 1.2921e-014 -6.02303e-014
Spine  -4.26376 -1.81754 3.0796
Spine1  8.31372 -2.06418 0.0910441
HEad  27.5006 -0.135834 -6.80821
LeftShoulder1  1.24978 -1.44172 -20.122
LeftArm  -5.69564 -1.03659 -54.2517
LeftForeArm  32.5663 1.72687 -11.079
LeftHand  -0.037936 4.78377 2.80118
RightShoulder  1.19277 0.405804 26.0271
RightArm  -27.935 -0.5474 47.9187
RightForeArm  64.6109 -5.29238 2.22894
RightHand  0.259885 -7.12982 -18.2819
LeftUpLeg  -2.48923 -2.67342 -5.28733
LeftLeg  15.3803 4.50213 3.07352
LeftFoot  -14.2671 0.0893903 0.148208
LeftToes  -9.4837e-011 -7.11147e-011 -1.07582e-011
56
root  -46.6262 38.8525 -115.361 -177.997 33.7784 177.653
RightUpLeg  -23.3437 -3.80732 -6.081
RightLeg  3.51145 1.26785 -0.123563
RightFoot  -4.80086 -0.394122 6.31796
RightToes  -5.28216e-011 1.2921e-014 -6.02303e-014
Spine  -5.28013 -2.31195 3.12598
Spine1  8.96594 -2.81403 0.777954
HEad  28.5579 -0.45767 -7.07424
LeftShoulder1  1.35575 -1.88386 -19.9088
LeftArm  -4.78529 -2.90164 -55.0303
LeftForeArm  32.9694 1.39287 -11.324
LeftHand  -0.0312983 4.71063 2.88465
RightShoulder  1.13349 0.21694 26.0558
RightArm  -28.5053 -1.85853 47.1282
RightForeArm  64.8407 -5.24052 1.97066
RightHand  0.209649 -6.83378 -18.0005
LeftUpLeg  -0.658442 -3.16597 -4.98975
LeftLeg  15.5482 3.79597 2.8394
LeftFoot  -15.682 0.0955244 0.0381726
LeftToes  -9.4837e-011 -7.11147e-011 -1.07582e-011
57
root  -45.7996 38.664 -116.252 -178.362 32.3557 177.506
RightUpLeg  -23.0009 -4.41804 -6.57804
RightLeg  4.54568 -0.365708 -0.0539981
RightFoot  -6.32481 -0.327037 6.47492
RightToes  -5.28216e-011 1.2921e-014 -6.02303e-014
Spine  -5.77915 -2.6705 3.163
Spine1  9.16585 -3.3268 1.09719
HEad  29.4097 -0.741421 -7.46846
LeftShoulder1  1.42728 -2.15303 -19.9339
LeftArm  -4.17371 -4.38773 -55.6749
LeftForeArm  34.0863 1.13441 -11.4736
LeftHand  -0.0266473 4.74512 2.97006
RightShoulder  1.06365 0.00126503 26.0245
RightArm  -28.9247 -3.43262 46.425
RightForeArm  64.4824 -5.22908 1.82597
RightHand  0.286255 -7.31451 -18.1432
LeftUpLeg  0.965442 -4.08746 -4.78763
LeftLeg  16.987 3.47469 2.59897
LeftFoot  -17.2905 0.0531139 -0.973349
LeftToes  -9.4837e-011 -7.11147e-011 -1.07582e-011
58
root  -44.9546 38.562 -117.158 -178.852 31.6378 177.489
RightUpLeg  -23.2007 -5.30326 -6.56264
RightLeg  9.05742 -1.45196 -0.151376
RightFoot  -3.16388 -0.517418 6.92734
RightToes  -5.28216e-011 1.2921e-014 -6.02303e-014
Spine  -6.49256 -2.79459 3.87787
Spine1  9.99377 -3.60413 1.12217
HEad  29.8628 -0.557823 -7.60442
LeftShoulder1  1.46306 -2.29381 -19.9148
LeftArm  -3.58634 -5.22129 -55.9702
LeftForeArm  34.6321 0.89928 -11.6327
LeftHand  -0.0232776 4.80599 3.02676
RightShoulder  1.02411 -0.163031 26.455
RightArm  -29.0947 -4.27744 45.4682
RightForeArm  64.7868 -5.20276 1.73545
RightHand  0.218834 -6.91161 -17.8097
LeftUpLeg  3.1307 -5.93513 -4.6655
LeftLeg  17.8401 4.25799 2.51812
LeftFoot  -17.9438 -0.0506551 -2.74271
LeftToes  -9.4837e-011 -7.11147e-011 -1.07582e-011
59
root  -44.1372 38.5436 -118.079 -179.136 31.4503 177.871
RightUpLeg  -23.4074 -2.30962 -6.51471
RightLeg  13.1025 -3.18987 -1.50102
RightFoot  1.39256 -0.904901 8.18141
RightToes  -5.28216e-011 1.2921e-014 -6.02303e-014
Spine  -6.89821 -2.82333 5.48307
Spine1  10.5136 -3.81354 1.16239
HEad  30.433 0.275683 -7.9665
LeftShoulder1  1.41889 -2.02364 -20.445
LeftArm  -2.93607 -5.31382 -55.685
LeftForeArm  34.6172 0.621033 -11.8564
LeftHand  -0.0169887 4.72774 3.23266
RightShoulder  0.98971 -0.288445 26.6683
RightArm  -29.1258 -4.87253 44.6561
RightForeArm  64.7185 -5.20133 1.71234
RightHand  0.286554 -7.31988 -18.1139
LeftUpLeg  4.79445 -8.41635 -4.60131
LeftLeg  19.7874 6.23946 2.81812
LeftFoot  -17.6342 -0.182738 -5.24336
LeftToes  -9.4837e-011 -7.11147e-011 -1.07582e-011
60
root  -43.2702 38.4335 -118.969 -179.38 31.9807 178.289
RightUpLeg  -23.968 -1.67436 -6.00571
RightLeg  18.3507 -2.96251 -1.30614
RightFoot  1.04278 -0.877589 8.14108
RightToes  -5.28216e-011 1.2921e-014 -6.02303e-014
Spine  -6.75091 -2.88923 6.20389
Spine1  10.2219 -3.93723 1.29094
HEad  30.9062 1.54131 -8.33059
LeftShoulder1  1.35134 -1.63967 -21.1926
LeftArm  -3.42922 -4.36036 -55.5424
LeftForeArm  34.8374 0.40344 -11.7171
LeftHand  -0.00898509 5.13421 4.04593
RightShoulder  0.993281 -0.296094 26.8793
RightArm  -29.2584 -4.78342 43.813
RightForeArm  64.9244 -5.17131 1.57899
RightHand  0.221157 -6.93558 -17.7206
LeftUpLeg  4.7707 -8.56453 -4.30019
LeftLeg  24.7082 6.63031 3.66065
LeftFoot  -16.8561 -0.288091 -8.0658
LeftToes  -9.4837e-011 -7.11147e-011 -1.07582e-011
